<svg width="18" height="18" viewBox="0 0 18 18" fill="none" xmlns="http://www.w3.org/2000/svg">
<g id="bullseye-with-target-symbol-svgrepo-com 2" clip-path="url(#clip0_1381_2931)">
<g id="Vector">
<path d="M1.59097 7.91631H1.54028e-06C0.238155 5.90539 1.13682 4.04455 2.59066 2.59066C4.04456 1.13682 5.90534 0.238154 7.91631 0V1.59097C4.65323 2.06622 2.06622 4.65323 1.59097 7.91631Z" fill="#9EA0A5"/>
<path d="M10.0837 1.59097V1.88167e-06C12.0946 0.238156 13.9554 1.13682 15.4093 2.59066C16.8632 4.04456 17.7618 5.90534 18 7.91631H16.409C15.9338 4.65323 13.3468 2.06622 10.0837 1.59097Z" fill="#9EA0A5"/>
<path d="M7.91631 16.409V18C5.90543 17.7618 4.04456 16.8632 2.59066 15.4093C1.13682 13.9554 0.238155 12.0947 1.54028e-06 10.0837H1.59097C2.06622 13.3468 4.65323 15.9338 7.91631 16.409Z" fill="#9EA0A5"/>
<path d="M16.409 10.0837H18C17.7619 12.0946 16.8632 13.9554 15.4093 15.4093C13.9554 16.8632 12.0947 17.7618 10.0837 18V16.409C13.3468 15.9338 15.9338 13.3468 16.409 10.0837Z" fill="#9EA0A5"/>
<path d="M12.9936 7.91631C12.61 6.50419 11.4958 5.38999 10.0837 5.00636V3.38922C12.3671 3.82943 14.1706 5.63294 14.6108 7.91631H12.9936Z" fill="#9EA0A5"/>
<path d="M12.9936 10.0837H14.6108C14.1706 12.3671 12.3671 14.1706 10.0837 14.6107V12.9936C11.4958 12.6101 12.6101 11.4958 12.9936 10.0837Z" fill="#9EA0A5"/>
<path d="M5.00636 10.0837C5.38999 11.4958 6.50419 12.61 7.91631 12.9936V14.6107C5.63294 14.1706 3.82943 12.3671 3.38922 10.0837H5.00636Z" fill="#9EA0A5"/>
<path d="M5.00636 7.91631H3.38922C3.82943 5.63294 5.63294 3.82943 7.91631 3.38922V5.00636C6.50419 5.38994 5.38994 6.50419 5.00636 7.91631Z" fill="#9EA0A5"/>
<path d="M8.56057 6.879V1.88167e-06H9.43943V6.879C10.2818 7.05323 10.9467 7.71817 11.121 8.56057H18V9.43943H11.121C10.9468 10.2818 10.2818 10.9467 9.43943 11.121V18H8.56057V11.121C7.71817 10.9468 7.05328 10.2818 6.87895 9.43934H0V8.56048H6.879C7.05323 7.71817 7.71817 7.05323 8.56057 6.879Z" fill="#9EA0A5"/>
</g>
</g>
<defs>
<clipPath id="clip0_1381_2931">
<rect width="18" height="18" fill="white" transform="matrix(-1 0 0 1 18 0)"/>
</clipPath>
</defs>
</svg>
