<svg width="18" height="18" viewBox="0 0 18 18" fill="none" xmlns="http://www.w3.org/2000/svg">
<g id="pie-chart-2-svgrepo-com 1">
<path id="Vector" opacity="0.5" d="M3.70424 2.21864C4.11175 1.94635 4.53964 1.71018 4.98299 1.51163C6.24055 0.948456 6.86932 0.666865 7.70586 1.2088C8.54232 1.75074 8.54232 2.63972 8.54232 4.41769V5.79269C8.54232 7.52115 8.54232 8.38538 9.0793 8.92237C9.61629 9.45935 10.4805 9.45935 12.209 9.45935H13.584C15.362 9.45935 16.2509 9.45935 16.7929 10.2958C17.3348 11.1324 17.0532 11.7611 16.49 13.0187C16.2915 13.4621 16.0553 13.89 15.7831 14.2974C14.8262 15.7295 13.4661 16.8457 11.8749 17.5048C10.2836 18.1639 8.53269 18.3363 6.84342 18.0004C5.15416 17.6643 3.60249 16.8349 2.3846 15.6171C1.16672 14.3992 0.337328 12.8475 0.00131482 11.1583C-0.334698 9.46897 -0.162237 7.71805 0.496874 6.12682C1.15598 4.53557 2.27215 3.17553 3.70424 2.21864Z" fill="#9EA0A5"/>
<path id="Vector_2" d="M17.6595 4.47854C16.9153 2.58957 15.4097 1.08392 13.5207 0.339766C12.1077 -0.216917 10.834 1.06318 10.834 2.58197V6.24864C10.834 6.75489 11.2444 7.16528 11.7507 7.16528H15.4173C16.9361 7.16528 18.2162 5.89162 17.6595 4.47854Z" fill="#9EA0A5"/>
</g>
</svg>
