<svg width="18" height="18" viewBox="0 0 18 18" fill="none" xmlns="http://www.w3.org/2000/svg">
<g id="bullseye-with-target-symbol-svgrepo-com 2" clip-path="url(#clip0_1381_378)">
<path id="Vector" d="M8.90813 14.161L6.8616 17.2653C6.62006 17.6294 6.24315 17.8826 5.81433 17.969C5.71246 17.9893 5.60871 17.9996 5.50483 17.9998C5.20217 18.0004 4.90622 17.9101 4.65556 17.7408C4.29752 17.5021 4.0564 17.1243 3.99072 16.6997C3.92276 16.2764 4.03187 15.844 4.29231 15.5032L7.10741 11.86H7.10754C7.23756 11.6922 7.47923 11.6613 7.64744 11.791C7.81566 11.9206 7.84662 12.1619 7.7166 12.3297L4.90151 15.9729C4.76948 16.1466 4.71519 16.3671 4.75165 16.582C4.78798 16.7969 4.91183 16.9873 5.09372 17.108C5.26301 17.221 5.47077 17.261 5.6701 17.2193C5.89743 17.1738 6.09727 17.0399 6.22544 16.8474L8.26431 13.7391C8.38254 13.5662 8.61792 13.5199 8.79309 13.6351C8.96829 13.7502 9.01855 13.9843 8.90609 14.161L8.90813 14.161ZM16.9939 0.416627C16.2772 -0.0933802 15.3029 -0.131763 14.2538 0.311232C13.1718 0.804496 12.245 1.58281 11.5732 2.56225C10.6009 3.92371 10.1455 5.48256 10.3568 6.7327C10.4036 7.02214 10.3779 7.31851 10.2819 7.59552C10.2134 7.79628 10.3209 8.01427 10.5221 8.08265C10.7232 8.15087 10.9417 8.0436 11.0102 7.84297C11.1471 7.44572 11.1835 7.0208 11.1159 6.60618C10.941 5.56693 11.3561 4.18825 12.1998 3.0072H12.1996C12.7871 2.14424 13.5989 1.45691 14.5479 1.01887C15.3434 0.685299 16.0506 0.692924 16.5425 1.04375C17.0345 1.39458 17.2746 2.05812 17.217 2.91706L17.2169 2.9172C17.112 3.95536 16.7261 4.94565 16.1005 5.78187C15.2646 6.9649 14.0848 7.80659 13.0433 7.97926C12.6365 8.04908 12.2527 8.21614 11.9248 8.46626C11.8353 8.53447 11.7499 8.60817 11.6692 8.68682C11.5294 8.83648 11.5321 9.06948 11.6754 9.21593C11.8185 9.36252 12.0519 9.37094 12.2054 9.23519C12.2661 9.17808 12.3302 9.12498 12.3976 9.07603C12.6256 8.90135 12.8926 8.78418 13.1758 8.73469C14.4306 8.52564 15.7585 7.58416 16.7328 6.22674V6.2266C17.4411 5.27432 17.8762 4.14744 17.9915 2.96698C18.0606 1.83383 17.707 0.926879 16.9941 0.416769L16.9939 0.416627ZM8.60616 7.39032C8.58833 7.35889 8.58833 7.32023 8.60616 7.2888C8.94676 6.52052 8.85628 5.6299 8.36784 4.94561L4.93574 0.1674C4.87743 0.0820664 4.78709 0.0238855 4.68522 0.00582726C4.58335 -0.0120954 4.4784 0.0117124 4.39435 0.0719005C4.31031 0.131954 4.25401 0.223441 4.23833 0.32549C4.22278 0.427543 4.24905 0.531599 4.31125 0.614124L7.7393 5.39234C8.07024 5.85537 8.13164 6.4582 7.90068 6.97807C7.83594 7.12024 7.81074 7.27727 7.82803 7.43254C7.84532 7.58782 7.9043 7.73548 7.9988 7.86013L14.34 16.0439H14.3399C14.4664 16.2021 14.5223 16.4051 14.4945 16.6056C14.4666 16.8061 14.3575 16.9863 14.1926 17.1042C14.0279 17.2221 13.8217 17.2673 13.6225 17.2293C13.4234 17.1912 13.2485 17.0732 13.1389 16.9028L7.38581 8.29344C7.29855 8.16277 7.17738 8.05817 7.03529 7.99063C6.89321 7.92322 6.73545 7.89526 6.57874 7.90984C6.01109 7.96214 5.45804 7.71136 5.12413 7.25031L1.70185 2.48374C1.64341 2.3984 1.5532 2.34022 1.45119 2.32216C1.34932 2.30424 1.24451 2.32805 1.16046 2.3881C1.07628 2.44829 1.02012 2.53978 1.00444 2.64183C0.988754 2.74388 1.01503 2.84794 1.07722 2.93046L4.50342 7.70697C4.99696 8.38975 5.81566 8.76105 6.6557 8.68295C6.6919 8.67733 6.72835 8.69111 6.75181 8.71933L12.4974 17.327C12.7227 17.6682 13.0783 17.9024 13.4812 17.975C13.572 17.9916 13.6639 17.9999 13.756 18C14.1335 17.9989 14.4968 17.8568 14.7743 17.6014C15.0518 17.3462 15.2233 16.9965 15.255 16.6211C15.2868 16.2458 15.1763 15.8724 14.9455 15.5743L8.60616 7.39032ZM6.1503 6.35883C6.29385 6.3591 6.42561 6.27952 6.49196 6.15246C6.55818 6.0254 6.54799 5.87198 6.46542 5.75483L3.33333 1.29094C3.21176 1.1172 2.97224 1.07466 2.7981 1.19598C2.62412 1.31729 2.58149 1.55629 2.70307 1.73006L5.8353 6.19394H5.83516C5.90687 6.29707 6.02456 6.35859 6.15029 6.35886L6.1503 6.35883Z" fill="#9EA0A5" stroke="#9EA0A5" stroke-width="0.4"/>
</g>
<defs>
<clipPath id="clip0_1381_378">
<rect width="18" height="18" fill="white" transform="matrix(-1 0 0 1 18 0)"/>
</clipPath>
</defs>
</svg>
