<svg width="18" height="20" viewBox="0 0 18 20" fill="none" xmlns="http://www.w3.org/2000/svg">
<g id="bullseye-with-target-symbol-svgrepo-com 2">
<g id="Vector">
<path d="M11.4809 10.2797C11.4992 10.2983 11.4992 10.2983 11.4809 10.2797V10.2797Z" fill="#9EA0A5"/>
<path d="M6.54018 10.2797C6.52188 10.2983 6.54018 10.2983 6.54018 10.2797V10.2797Z" fill="#9EA0A5"/>
<path d="M13.933 5.66167C13.8232 4.58164 12.4874 4.06024 12.4874 4.06024C11.9567 2.73814 10.8405 3.44574 10.8405 3.44574C10.6392 3.16642 10.1817 3.24091 10.1817 3.24091C9.61443 3.1478 9.65103 2.88711 9.65103 2.88711H8.35179C8.35179 2.88711 8.38839 3.1478 7.82112 3.24091C7.82112 3.24091 7.36364 3.16642 7.16235 3.44574C7.16235 3.44574 6.0461 2.73814 5.51543 4.06024C5.51543 4.06024 4.19789 4.60026 4.0698 5.66167C4.0698 5.66167 3.83191 6.1272 4.23449 6.23892C4.23449 6.23892 4.82006 7.48655 6.59508 7.72862C6.59508 7.72862 6.83296 8.08242 7.34534 8.17553C7.34534 8.17553 7.30874 8.23139 7.27214 8.3245C7.25384 8.38036 7.23554 8.43623 7.21725 8.49209C7.18065 8.64106 7.14405 8.80865 7.18065 8.97624C7.18065 8.97624 6.59508 10.168 6.52188 10.2611C6.54018 10.2425 6.55848 10.2052 6.57678 10.2052C6.54018 10.2797 5.55203 12.1232 6.1559 13.2033C6.1559 13.2033 5.93631 14.0412 6.0644 14.3764C6.0644 14.3764 5.49713 15.2143 5.62522 17.2441C5.62522 17.2441 5.62522 18.9758 5.11285 19.4786C5.11285 19.4786 5.03965 19.6834 4.85666 19.6834C4.85666 19.6834 4.43578 20.0559 5.20434 19.9628L5.80821 19.9814C5.80821 19.9814 5.97291 19.609 5.97291 19.4972C5.97291 19.4972 6.44868 19.4227 6.52188 19.2179C6.52188 19.2179 6.55848 19.1248 6.35719 18.6779C6.35719 18.6779 6.37549 17.3558 6.64997 16.9275C6.64997 16.9275 7.32704 16.3316 7.10745 15.4564V14.4136C7.10745 14.4136 7.41854 14.0785 7.56493 13.5757C7.56493 13.5757 7.91261 13.0729 7.94921 12.9426C7.94921 12.9426 9.02886 12.5888 8.88246 10.4473H9.10205C8.95566 12.6074 10.0353 12.9612 10.0353 12.9612C10.0719 13.1102 10.4196 13.5943 10.4196 13.5943C10.566 14.0971 10.8771 14.4323 10.8771 14.4323V15.475C10.6575 16.3502 11.3345 16.9461 11.3345 16.9461C11.609 17.3744 11.6273 18.6965 11.6273 18.6965C11.426 19.1434 11.4626 19.2365 11.4626 19.2365C11.5358 19.4414 12.0116 19.5158 12.0116 19.5158C12.0116 19.6276 12.1763 20 12.1763 20L12.7802 19.9814C13.5487 20.0745 13.1279 19.7021 13.1279 19.7021C12.9449 19.7021 12.8717 19.4972 12.8717 19.4972C12.3593 18.9945 12.3593 17.2627 12.3593 17.2627C12.4874 15.2143 11.9201 14.395 11.9201 14.395C12.0482 14.0412 11.8286 13.2219 11.8286 13.2219C12.4325 12.1605 11.4443 10.2983 11.4077 10.2239C11.4077 10.2239 11.4443 10.2611 11.4626 10.2797C11.3894 10.1866 10.8039 8.99486 10.8039 8.99486C10.8405 8.82727 10.8222 8.64106 10.7673 8.51071C10.749 8.45485 10.7307 8.38036 10.7124 8.34312C10.6758 8.25002 10.6392 8.19415 10.6392 8.19415C11.1516 8.10105 11.3894 7.74724 11.3894 7.74724C13.1828 7.50517 13.75 6.25754 13.75 6.25754C14.1709 6.1272 13.933 5.66167 13.933 5.66167ZM7.12575 7.26309C6.81466 7.11412 5.97291 6.42514 5.97291 6.42514C5.97291 6.38789 5.95461 6.33203 5.93631 6.25754C5.88141 6.10858 5.80821 5.90374 5.80821 5.90374C5.84481 5.90374 5.89971 5.8665 5.97291 5.82926C6.0827 5.75477 6.21079 5.66167 6.21079 5.66167C6.28399 6.08995 6.99766 6.55548 6.99766 6.55548C7.14405 6.72307 7.34534 7.22585 7.34534 7.22585L7.12575 7.26309ZM12.1031 6.23892C12.0848 6.31341 12.0665 6.38789 12.0665 6.40651C12.0665 6.40651 11.2065 7.0955 10.9137 7.24447L10.7124 7.20723C10.7124 7.20723 10.9137 6.70445 11.0601 6.53686C11.0601 6.53686 11.7554 6.05271 11.8469 5.64305C11.8469 5.64305 11.975 5.73615 12.0848 5.81064C12.158 5.84788 12.2129 5.88512 12.2495 5.88512C12.2129 5.88512 12.1397 6.08995 12.1031 6.23892Z" fill="#9EA0A5"/>
<path d="M10.0536 1.04361C10.0536 1.80708 9.57787 2.73814 9.01059 2.73814C8.42502 2.73814 7.96754 1.80708 7.96754 1.04361C7.96754 0.280136 8.44332 0.000817772 9.01059 0.000817772C9.59616 -0.0178034 10.0536 0.280136 10.0536 1.04361Z" fill="#9EA0A5"/>
<path d="M9.57786 2.08639H8.44332C8.44332 2.08639 8.47992 2.98021 8.16883 3.12918H9.85235C9.54127 2.98021 9.57786 2.08639 9.57786 2.08639Z" fill="#9EA0A5"/>
<path d="M10.1085 1.63948C10.017 1.76983 9.87065 1.8257 9.77915 1.75121C9.70596 1.67673 9.72426 1.52776 9.83405 1.39741C9.92555 1.26706 10.0719 1.22982 10.1451 1.28568C10.2183 1.36017 10.2 1.50914 10.1085 1.63948Z" fill="#9EA0A5"/>
<path d="M7.91264 1.63948C8.00414 1.76983 8.15053 1.8257 8.24203 1.75121C8.31523 1.67673 8.29693 1.52776 8.18713 1.39741C8.09564 1.26706 7.94924 1.22982 7.87605 1.28568C7.80285 1.36017 7.82115 1.50914 7.91264 1.63948Z" fill="#9EA0A5"/>
</g>
<g id="Vector_2">
<path d="M9 5.74682V6.18812L9.34165 6.07779C10.8489 6.33522 11.2107 5.6181 11.2107 5.6181C10.1857 6.37199 9.20097 5.87553 9 5.74682Z" fill="black"/>
<path d="M9 6.9604C9 6.9604 10.0049 7.29137 10.246 7.08911C10.246 7.08911 9.88428 7.43847 9 7.16266V6.9604Z" fill="black"/>
<path d="M9 7.86139C9 7.86139 9.7436 7.95332 9.98476 7.75106C9.98476 7.75106 9.82399 8.1372 9 8.06365V7.86139Z" fill="black"/>
<path d="M11.3514 5.87553C11.3514 5.87553 11.3112 6.53748 11.1303 6.8133C11.1303 6.8133 11.0298 7.27298 10.9494 7.4017C10.9494 7.4017 11.1504 6.68458 10.9494 6.42716C10.9293 6.42716 11.2911 6.68458 11.3514 5.87553Z" fill="black"/>
<path d="M12.9792 5.78359C12.8788 5.94908 12.517 6.53748 12.3964 6.75813C12.4567 6.61103 12.5371 6.40877 12.5371 6.40877C12.4969 6.40877 12.4366 6.37199 12.3562 6.33522C12.3562 6.35361 12.8386 5.98586 12.9792 5.78359Z" fill="black"/>
<path d="M12.9993 5.74682C12.9993 5.76521 12.9792 5.76521 12.9792 5.78359C12.9993 5.76521 12.9993 5.74682 12.9993 5.74682Z" fill="black"/>
<path d="M9 4.71711C9 4.71711 9.58282 4.20226 10.246 4.16549C10.246 4.16549 9.28136 4.11033 9.0201 4.53324L9 4.71711Z" fill="black"/>
<path d="M10.648 11.6676C10.6279 11.6676 11.9543 12.6422 11.9141 13.6719C11.9141 13.6719 12.0146 11.7228 11.7332 11.4837C11.7332 11.4837 11.8538 12.0905 11.7935 12.587C11.7935 12.5686 11.0901 11.7412 10.648 11.6676Z" fill="black"/>
<path d="M10.6078 12.5686C10.6078 12.5686 10.3465 14.2419 11.2911 14.3338C11.2911 14.3338 11.8136 14.058 11.894 13.8006C11.894 13.8006 11.7935 14.3338 11.1705 14.4625C11.1705 14.4625 10.2058 14.2051 10.6078 12.5686Z" fill="black"/>
<path d="M13.2405 5.25035C13.2405 5.25035 14.4664 5.83876 13.8032 6.42716C13.8233 6.42716 14.1851 5.85714 13.2405 5.25035Z" fill="black"/>
<path d="M13.7027 6.86846C13.7027 6.86846 12.7783 7.67751 11.9342 7.78784C11.9141 7.78784 12.7381 7.89816 13.7027 6.86846Z" fill="black"/>
<path d="M11.4921 4C11.4921 4 12.0548 4.34936 11.9945 4.90099C11.9945 4.90099 11.8337 4.22065 11.4921 4Z" fill="black"/>
<path d="M9 5.74682V6.18812L8.65835 6.07779C7.15106 6.33522 6.78931 5.6181 6.78931 5.6181C7.81426 6.37199 8.79903 5.87553 9 5.74682Z" fill="black"/>
<path d="M9 6.9604C9 6.9604 7.99514 7.29137 7.75397 7.08911C7.75397 7.08911 8.11572 7.43847 9 7.16266V6.9604Z" fill="black"/>
<path d="M9 7.86139C9 7.86139 8.2564 7.95332 8.01524 7.75106C8.01524 7.75106 8.17601 8.1372 9 8.06365V7.86139Z" fill="black"/>
<path d="M6.64863 5.87553C6.64863 5.87553 6.68882 6.53748 6.8697 6.8133C6.8697 6.8133 6.97018 7.27298 7.05057 7.4017C7.05057 7.4017 6.8496 6.68458 7.05057 6.42716C7.07067 6.42716 6.70892 6.68458 6.64863 5.87553Z" fill="black"/>
<path d="M5.02075 5.78359C5.12124 5.94908 5.48299 6.53748 5.60357 6.75813C5.54328 6.61103 5.46289 6.40877 5.46289 6.40877C5.50309 6.40877 5.56338 6.37199 5.64377 6.33522C5.64377 6.35361 5.16143 5.98586 5.02075 5.78359Z" fill="black"/>
<path d="M5.00066 5.74682C5.00066 5.76521 5.02075 5.76521 5.02075 5.78359C5.00066 5.76521 5.00066 5.74682 5.00066 5.74682Z" fill="black"/>
<path d="M9 4.71711C9 4.71711 8.41718 4.20226 7.75397 4.16549C7.75397 4.16549 8.71864 4.11033 8.9799 4.53324L9 4.71711Z" fill="black"/>
<path d="M7.35203 11.6676C7.37213 11.6676 6.04571 12.6422 6.08591 13.6719C6.08591 13.6719 5.98542 11.7228 6.26678 11.4837C6.26678 11.4837 6.1462 12.0905 6.20649 12.587C6.20649 12.5686 6.90989 11.7412 7.35203 11.6676Z" fill="black"/>
<path d="M7.39222 12.5686C7.39222 12.5686 7.65349 14.2419 6.70892 14.3338C6.70892 14.3338 6.18639 14.058 6.106 13.8006C6.106 13.8006 6.20649 14.3338 6.8295 14.4625C6.8295 14.4625 7.79417 14.2051 7.39222 12.5686Z" fill="black"/>
<path d="M4.75949 5.25035C4.75949 5.25035 3.53356 5.83876 4.19677 6.42716C4.17667 6.42716 3.81492 5.85714 4.75949 5.25035Z" fill="black"/>
<path d="M4.29725 6.86846C4.29725 6.86846 5.22173 7.67751 6.06581 7.78784C6.08591 7.78784 5.26192 7.89816 4.29725 6.86846Z" fill="black"/>
<path d="M6.50795 4C6.50795 4 5.94522 4.34936 6.00552 4.90099C6.00552 4.90099 6.16629 4.22065 6.50795 4Z" fill="black"/>
<path d="M11.6327 15.6577C11.6327 15.6577 11.8337 16.5035 11.472 17C11.4519 17 11.9744 16.669 11.6327 15.6577Z" fill="black"/>
<path d="M6.22659 15.6577C6.22659 15.6577 6.02561 16.5035 6.38736 17C6.40746 17 5.88493 16.669 6.22659 15.6577Z" fill="black"/>
</g>
<path id="Vector_3" d="M10.8757 9.00786C10.3315 9.21756 7.66851 9.21756 7.12425 9.00786C7.08538 8.98689 7.02706 9.00786 7.00763 9.07077C6.98819 9.11271 7.00763 9.15465 7.0465 9.19659C7.6102 9.63696 8.83478 10.8742 8.93197 11H9.06803C9.16522 10.8742 10.3898 9.63696 10.9535 9.19659C10.9924 9.17562 11.0118 9.11271 10.9924 9.07077C10.9729 9.00786 10.9341 8.98689 10.8757 9.00786Z" fill="#FF7058"/>
</g>
</svg>
