<svg width="344" height="35" viewBox="0 0 344 35" fill="none" xmlns="http://www.w3.org/2000/svg">
<mask id="path-1-inside-1_497_9177" fill="white">
<path d="M0.5 0H343.5V35H0.5V0Z"/>
</mask>
<path d="M343.5 34H0.5V36H343.5V34Z" fill="white" mask="url(#path-1-inside-1_497_9177)"/>
<path fill-rule="evenodd" clip-rule="evenodd" d="M122 2.33333C120.928 2.33333 119.866 2.54457 118.875 2.95498C117.884 3.3654 116.984 3.96695 116.225 4.72529C115.467 5.48364 114.865 6.38393 114.455 7.37475C114.045 8.36558 113.833 9.42754 113.833 10.5C113.833 11.5725 114.045 12.6344 114.455 13.6252C114.865 14.6161 115.467 15.5164 116.225 16.2747C116.984 17.033 117.884 17.6346 118.875 18.045C119.866 18.4554 120.928 18.6667 122 18.6667C124.166 18.6667 126.243 17.8063 127.775 16.2747C129.306 14.7432 130.167 12.6659 130.167 10.5C130.167 8.33407 129.306 6.25684 127.775 4.72529C126.243 3.19375 124.166 2.33333 122 2.33333ZM111.5 10.5C111.5 7.71523 112.606 5.04451 114.575 3.07538C116.545 1.10625 119.215 0 122 0C124.785 0 127.455 1.10625 129.425 3.07538C131.394 5.04451 132.5 7.71523 132.5 10.5C132.5 13.2848 131.394 15.9555 129.425 17.9246C127.455 19.8938 124.785 21 122 21C119.215 21 116.545 19.8938 114.575 17.9246C112.606 15.9555 111.5 13.2848 111.5 10.5ZM123.178 15.1667C123.178 15.4761 123.055 15.7728 122.837 15.9916C122.618 16.2104 122.321 16.3333 122.012 16.3333H122C121.691 16.3333 121.394 16.2104 121.175 15.9916C120.956 15.7728 120.833 15.4761 120.833 15.1667C120.833 14.8572 120.956 14.5605 121.175 14.3417C121.394 14.1229 121.691 14 122 14H122.012C122.321 14 122.618 14.1229 122.837 14.3417C123.055 14.5605 123.178 14.8572 123.178 15.1667ZM123.167 5.83333C123.167 5.52391 123.044 5.22717 122.825 5.00838C122.606 4.78958 122.309 4.66667 122 4.66667C121.691 4.66667 121.394 4.78958 121.175 5.00838C120.956 5.22717 120.833 5.52391 120.833 5.83333V11.6667C120.833 11.9761 120.956 12.2728 121.175 12.4916C121.394 12.7104 121.691 12.8333 122 12.8333C122.309 12.8333 122.606 12.7104 122.825 12.4916C123.044 12.2728 123.167 11.9761 123.167 11.6667V5.83333Z" fill="white"/>
<path d="M144.439 16H142.812V6.00586H148.459V7.38672H144.439V10.5039H148.199V11.8779H144.439V16ZM151.685 16H150.071V5.36328H151.685V16ZM160.639 12.1992C160.639 12.8281 160.557 13.3864 160.393 13.874C160.229 14.3617 159.989 14.7741 159.675 15.1113C159.36 15.444 158.982 15.6992 158.54 15.877C158.098 16.0501 157.599 16.1367 157.043 16.1367C156.523 16.1367 156.047 16.0501 155.614 15.877C155.181 15.6992 154.805 15.444 154.486 15.1113C154.172 14.7741 153.928 14.3617 153.755 13.874C153.582 13.3864 153.495 12.8281 153.495 12.1992C153.495 11.3652 153.639 10.6589 153.926 10.0801C154.217 9.49674 154.632 9.05241 155.17 8.74707C155.708 8.44173 156.348 8.28906 157.091 8.28906C157.788 8.28906 158.403 8.44173 158.937 8.74707C159.47 9.05241 159.887 9.49674 160.187 10.0801C160.488 10.6634 160.639 11.3698 160.639 12.1992ZM155.149 12.1992C155.149 12.7507 155.215 13.2223 155.348 13.6143C155.484 14.0062 155.694 14.307 155.977 14.5166C156.259 14.7217 156.624 14.8242 157.07 14.8242C157.517 14.8242 157.881 14.7217 158.164 14.5166C158.447 14.307 158.654 14.0062 158.786 13.6143C158.918 13.2223 158.984 12.7507 158.984 12.1992C158.984 11.6478 158.918 11.1807 158.786 10.7979C158.654 10.4105 158.447 10.1165 158.164 9.91602C157.881 9.71094 157.515 9.6084 157.063 9.6084C156.398 9.6084 155.913 9.83171 155.607 10.2783C155.302 10.7249 155.149 11.3652 155.149 12.1992ZM169.039 8.43262V16H167.774L167.556 14.9814H167.467C167.307 15.2412 167.104 15.4577 166.858 15.6309C166.612 15.7995 166.339 15.9248 166.038 16.0068C165.737 16.0934 165.421 16.1367 165.088 16.1367C164.518 16.1367 164.031 16.041 163.625 15.8496C163.224 15.6536 162.916 15.3529 162.702 14.9473C162.488 14.5417 162.381 14.0176 162.381 13.375V8.43262H163.994V13.0742C163.994 13.6621 164.113 14.1019 164.35 14.3936C164.591 14.6852 164.965 14.8311 165.471 14.8311C165.958 14.8311 166.346 14.7308 166.633 14.5303C166.92 14.3298 167.123 14.0335 167.241 13.6416C167.364 13.2497 167.426 12.7689 167.426 12.1992V8.43262H169.039ZM175.136 8.28906C175.263 8.28906 175.402 8.2959 175.553 8.30957C175.703 8.32324 175.833 8.34147 175.942 8.36426L175.792 9.86816C175.696 9.84082 175.578 9.82031 175.436 9.80664C175.3 9.79297 175.177 9.78613 175.067 9.78613C174.78 9.78613 174.507 9.83398 174.247 9.92969C173.987 10.0208 173.757 10.1621 173.557 10.3535C173.356 10.5404 173.199 10.7751 173.085 11.0576C172.971 11.3402 172.914 11.6683 172.914 12.042V16H171.301V8.43262H172.559L172.777 9.76562H172.853C173.003 9.49674 173.19 9.25065 173.413 9.02734C173.636 8.80404 173.892 8.6263 174.179 8.49414C174.47 8.35742 174.789 8.28906 175.136 8.28906ZM183.713 14.8379C183.922 14.8379 184.13 14.8197 184.335 14.7832C184.54 14.7422 184.727 14.6943 184.895 14.6396V15.8564C184.718 15.9339 184.488 16 184.205 16.0547C183.922 16.1094 183.629 16.1367 183.323 16.1367C182.895 16.1367 182.51 16.0661 182.168 15.9248C181.826 15.779 181.555 15.5306 181.354 15.1797C181.154 14.8288 181.054 14.3434 181.054 13.7236V9.65625H180.021V8.93848L181.129 8.37109L181.655 6.75098H182.667V8.43262H184.834V9.65625H182.667V13.7031C182.667 14.0859 182.763 14.3708 182.954 14.5576C183.145 14.7445 183.398 14.8379 183.713 14.8379ZM193.091 12.1992C193.091 12.8281 193.009 13.3864 192.845 13.874C192.681 14.3617 192.441 14.7741 192.127 15.1113C191.812 15.444 191.434 15.6992 190.992 15.877C190.55 16.0501 190.051 16.1367 189.495 16.1367C188.976 16.1367 188.499 16.0501 188.066 15.877C187.633 15.6992 187.257 15.444 186.938 15.1113C186.624 14.7741 186.38 14.3617 186.207 13.874C186.034 13.3864 185.947 12.8281 185.947 12.1992C185.947 11.3652 186.091 10.6589 186.378 10.0801C186.67 9.49674 187.084 9.05241 187.622 8.74707C188.16 8.44173 188.8 8.28906 189.543 8.28906C190.24 8.28906 190.855 8.44173 191.389 8.74707C191.922 9.05241 192.339 9.49674 192.64 10.0801C192.94 10.6634 193.091 11.3698 193.091 12.1992ZM187.602 12.1992C187.602 12.7507 187.668 13.2223 187.8 13.6143C187.936 14.0062 188.146 14.307 188.429 14.5166C188.711 14.7217 189.076 14.8242 189.522 14.8242C189.969 14.8242 190.334 14.7217 190.616 14.5166C190.899 14.307 191.106 14.0062 191.238 13.6143C191.37 13.2223 191.436 12.7507 191.436 12.1992C191.436 11.6478 191.37 11.1807 191.238 10.7979C191.106 10.4105 190.899 10.1165 190.616 9.91602C190.334 9.71094 189.967 9.6084 189.516 9.6084C188.85 9.6084 188.365 9.83171 188.06 10.2783C187.754 10.7249 187.602 11.3652 187.602 12.1992ZM198.729 8.28906C198.857 8.28906 198.996 8.2959 199.146 8.30957C199.297 8.32324 199.427 8.34147 199.536 8.36426L199.386 9.86816C199.29 9.84082 199.171 9.82031 199.03 9.80664C198.893 9.79297 198.77 9.78613 198.661 9.78613C198.374 9.78613 198.101 9.83398 197.841 9.92969C197.581 10.0208 197.351 10.1621 197.15 10.3535C196.95 10.5404 196.793 10.7751 196.679 11.0576C196.565 11.3402 196.508 11.6683 196.508 12.042V16H194.894V8.43262H196.152L196.371 9.76562H196.446C196.597 9.49674 196.783 9.25065 197.007 9.02734C197.23 8.80404 197.485 8.6263 197.772 8.49414C198.064 8.35742 198.383 8.28906 198.729 8.28906ZM203.712 14.8379C203.921 14.8379 204.129 14.8197 204.334 14.7832C204.539 14.7422 204.726 14.6943 204.894 14.6396V15.8564C204.717 15.9339 204.487 16 204.204 16.0547C203.921 16.1094 203.628 16.1367 203.322 16.1367C202.894 16.1367 202.509 16.0661 202.167 15.9248C201.825 15.779 201.554 15.5306 201.353 15.1797C201.153 14.8288 201.053 14.3434 201.053 13.7236V9.65625H200.02V8.93848L201.128 8.37109L201.654 6.75098H202.666V8.43262H204.833V9.65625H202.666V13.7031C202.666 14.0859 202.762 14.3708 202.953 14.5576C203.144 14.7445 203.397 14.8379 203.712 14.8379ZM207.997 8.43262V16H206.391V8.43262H207.997ZM207.204 5.53418C207.45 5.53418 207.662 5.60026 207.84 5.73242C208.022 5.86458 208.113 6.09245 208.113 6.41602C208.113 6.73503 208.022 6.96289 207.84 7.09961C207.662 7.23177 207.45 7.29785 207.204 7.29785C206.949 7.29785 206.732 7.23177 206.555 7.09961C206.381 6.96289 206.295 6.73503 206.295 6.41602C206.295 6.09245 206.381 5.86458 206.555 5.73242C206.732 5.60026 206.949 5.53418 207.204 5.53418ZM211.872 16H210.259V5.36328H211.872V16ZM215.74 16H214.127V5.36328H215.74V16ZM220.962 8.28906C221.919 8.28906 222.641 8.50098 223.129 8.9248C223.621 9.34863 223.867 10.0094 223.867 10.9072V16H222.725L222.418 14.9268H222.363C222.149 15.2002 221.928 15.4258 221.7 15.6035C221.472 15.7812 221.208 15.9134 220.907 16C220.611 16.0911 220.249 16.1367 219.82 16.1367C219.369 16.1367 218.966 16.0547 218.61 15.8906C218.255 15.722 217.975 15.4668 217.769 15.125C217.564 14.7832 217.462 14.3503 217.462 13.8262C217.462 13.0469 217.751 12.4613 218.33 12.0693C218.913 11.6774 219.793 11.4609 220.969 11.4199L222.281 11.3721V10.9756C222.281 10.4515 222.158 10.0778 221.912 9.85449C221.67 9.63118 221.329 9.51953 220.887 9.51953C220.508 9.51953 220.142 9.57422 219.786 9.68359C219.431 9.79297 219.084 9.92741 218.747 10.0869L218.227 8.95215C218.597 8.75618 219.016 8.59668 219.485 8.47363C219.959 8.35059 220.451 8.28906 220.962 8.28906ZM222.274 12.3838L221.297 12.418C220.495 12.4453 219.932 12.582 219.608 12.8281C219.285 13.0742 219.123 13.4115 219.123 13.8398C219.123 14.2135 219.235 14.487 219.458 14.6602C219.681 14.8288 219.975 14.9131 220.34 14.9131C220.896 14.9131 221.356 14.7559 221.721 14.4414C222.09 14.1224 222.274 13.6553 222.274 13.04V12.3838ZM231.16 13.8398C231.16 14.3366 231.039 14.7559 230.798 15.0977C230.556 15.4395 230.203 15.6992 229.738 15.877C229.278 16.0501 228.713 16.1367 228.043 16.1367C227.514 16.1367 227.058 16.098 226.676 16.0205C226.297 15.9476 225.94 15.8337 225.602 15.6787V14.291C225.962 14.4596 226.366 14.6055 226.812 14.7285C227.264 14.8516 227.69 14.9131 228.091 14.9131C228.619 14.9131 229 14.8311 229.232 14.667C229.465 14.4984 229.581 14.2751 229.581 13.9971C229.581 13.833 229.533 13.6872 229.437 13.5596C229.346 13.4274 229.173 13.293 228.918 13.1562C228.667 13.015 228.298 12.8464 227.81 12.6504C227.332 12.459 226.929 12.2676 226.6 12.0762C226.272 11.8848 226.024 11.6546 225.855 11.3857C225.687 11.1123 225.602 10.7637 225.602 10.3398C225.602 9.66992 225.867 9.16178 226.395 8.81543C226.929 8.46452 227.633 8.28906 228.508 8.28906C228.973 8.28906 229.41 8.33691 229.82 8.43262C230.235 8.52376 230.641 8.6582 231.037 8.83594L230.531 10.0459C230.189 9.89551 229.845 9.77246 229.499 9.67676C229.157 9.5765 228.808 9.52637 228.453 9.52637C228.038 9.52637 227.722 9.59017 227.503 9.71777C227.289 9.84538 227.182 10.0277 227.182 10.2646C227.182 10.4424 227.234 10.5928 227.339 10.7158C227.444 10.8389 227.624 10.9619 227.879 11.085C228.139 11.208 228.499 11.3607 228.959 11.543C229.41 11.7161 229.8 11.8984 230.128 12.0898C230.461 12.2767 230.716 12.5068 230.893 12.7803C231.071 13.0537 231.16 13.4069 231.16 13.8398Z" fill="white"/>
<path fill-rule="evenodd" clip-rule="evenodd" d="M337.036 13.15C337.28 13.3937 337.28 13.7938 337.036 14.0375C336.792 14.2813 336.396 14.2813 336.151 14.0375L333.504 11.3875L330.837 14.0562C330.591 14.3 330.193 14.3 329.946 14.0562C329.701 13.8062 329.701 13.4063 329.946 13.1625L332.613 10.4937L329.965 7.85001C329.721 7.60626 329.721 7.20623 329.965 6.96248C330.208 6.71873 330.604 6.71873 330.849 6.96248L333.496 9.61247L336.182 6.92502C336.429 6.68127 336.827 6.68127 337.073 6.92502C337.319 7.17502 337.319 7.56873 337.073 7.81873L334.387 10.5063L337.036 13.15ZM333.5 0.5C327.977 0.5 323.5 4.975 323.5 10.5C323.5 16.025 327.977 20.5 333.5 20.5C339.023 20.5 343.5 16.025 343.5 10.5C343.5 4.975 339.023 0.5 333.5 0.5Z" fill="white"/>
</svg>
