<svg width="18" height="18" viewBox="0 0 18 18" fill="none" xmlns="http://www.w3.org/2000/svg">
<g id="bullseye-with-target-symbol-svgrepo-com 2" clip-path="url(#clip0_1381_2841)">
<g id="Vector">
<path d="M9.5 6.43917C9.91383 6.43917 10.3236 6.3558 10.7059 6.1939C11.0882 6.03199 11.4355 5.79472 11.728 5.49558C12.0205 5.19645 12.2524 4.84137 12.4105 4.45059C12.5687 4.05982 12.6499 3.64101 12.6495 3.21815C12.6495 2.36465 12.3177 1.54606 11.7271 0.942539C11.1364 0.339018 10.3353 0 9.5 0C8.6647 0 7.86372 0.339018 7.27307 0.942539C6.68243 1.54606 6.35051 2.36465 6.35051 3.21815C6.35051 4.07192 6.68224 4.89077 7.2728 5.49475C7.86336 6.09872 8.66445 6.43841 9.5 6.43917Z" fill="#9EA0A5"/>
<path d="M17 15.8248C16.9993 13.7928 16.2088 11.8442 14.8023 10.4077C13.3959 8.9711 11.4886 8.16411 9.5 8.16411C7.51136 8.16411 5.60425 8.9711 4.19781 10.4077C2.79137 11.8442 2.00074 13.7928 2 15.8248C2 20.0584 17 20.0584 17 15.8248Z" fill="#9EA0A5"/>
</g>
</g>
<defs>
<clipPath id="clip0_1381_2841">
<rect width="18" height="18" fill="white" transform="matrix(-1 0 0 1 18 0)"/>
</clipPath>
</defs>
</svg>
