<svg width="18" height="18" viewBox="0 0 18 18" fill="none" xmlns="http://www.w3.org/2000/svg">
<g id="Solid head heart">
<path id="Vector" d="M4.43015 7.88071C4.15831 8.06194 3.81803 8.10751 3.50809 8.00419C2.24354 7.58268 1.25124 6.59038 0.829726 5.32583C0.726411 5.01589 0.771981 4.67561 0.953207 4.40377L1.05617 4.24932C1.32256 3.84974 1.61312 3.46809 1.92588 3.10635L0.910061 2.09053L2.08857 0.912014L3.1044 1.92784C3.46614 1.61507 3.84779 1.32451 4.24736 1.05813L4.40181 0.95516C4.67365 0.773934 5.01393 0.728364 5.32388 0.831679C6.58843 1.2532 7.58072 2.24549 8.00224 3.51004C8.10555 3.81998 8.05998 4.16027 7.87876 4.43211L7.77579 4.58655C7.50941 4.98613 7.21885 5.36778 6.90608 5.72952L11.4566 10.28C11.8909 9.898 12.3511 9.54449 12.8345 9.22223L12.9271 9.16053C13.0778 9.06004 13.2665 9.03478 13.4384 9.09206C14.8407 9.5595 15.9411 10.6599 16.4085 12.0622C16.4658 12.2341 16.4405 12.4228 16.3401 12.5735L16.2784 12.666C15.9561 13.1494 15.6026 13.6097 15.2206 14.044L16.2552 15.0787L15.0767 16.2572L14.042 15.2225C13.6077 15.6045 13.1475 15.958 12.6641 16.2803L12.5715 16.342C12.4208 16.4425 12.2321 16.4678 12.0603 16.4105C10.658 15.943 9.55755 14.8426 9.09011 13.4403C9.03282 13.2685 9.05809 13.0798 9.15857 12.929L9.22027 12.8365C9.54254 12.3531 9.89605 11.8929 10.2781 11.4585L5.72757 6.90804C5.36582 7.2208 4.98418 7.51136 4.5846 7.77775L4.43015 7.88071Z" fill="#9EA0A5" stroke="#9EA0A5" stroke-width="2" stroke-linejoin="round"/>
</g>
</svg>
